<svg width="165" height="79" viewBox="0 0 165 79" fill="none" xmlns="http://www.w3.org/2000/svg">
<path d="M88.4121 43.1482C87.2134 43.0687 86.0802 43.2785 85.0829 43.764C82.4782 44.9752 81.1805 47.4987 82.1845 49.4001C83.1885 51.3014 86.1137 51.8601 88.7184 50.649C89.7341 50.1982 90.5983 49.4796 91.2579 48.5377C91.5613 48.0775 91.5414 47.3736 91.2074 46.7425L89.9031 44.2725C89.5708 43.6404 88.9857 43.1996 88.4121 43.1482Z" fill="#D5D6DB"/>
<path d="M81.4583 18.7782C80.5891 18.7207 79.7674 18.873 79.0441 19.2252C77.1558 20.1032 76.2141 21.9329 76.9415 23.3106C77.6689 24.6882 79.791 25.0933 81.679 24.2154C82.4155 23.8882 83.042 23.3667 83.5204 22.6836C83.7401 22.35 83.7255 21.8399 83.4835 21.3824L82.539 19.5937C82.2984 19.1355 81.8743 18.8155 81.4583 18.7782Z" fill="#D5D6DB"/>
<path d="M69.8388 16.5517C69.6367 16.4608 69.4319 16.4537 69.2644 16.5314L64.8457 18.5722C64.476 18.7419 64.3836 19.2709 64.6398 19.7541C64.6984 19.8647 64.7727 19.9672 64.8585 20.0554L77.9895 33.6183L92.7234 26.8134L69.8388 16.5517Z" fill="#029BC5"/>
<path d="M121.355 26.3248L78.6615 49.5521L52.4966 54.2293L38.7554 52.6396L36.8271 48.2971L108.125 10.9154C110.248 9.79263 112.716 9.56114 115.279 10.2448C116.402 10.5528 117.53 11.0475 118.637 11.7167C119.617 12.2993 120.567 13.0535 121.458 13.9566C122.454 14.9743 124.233 15.7457 124.936 17.2701C124.938 17.2687 126.888 23.7636 121.355 26.3248V26.3248Z" fill="#E1E6E9"/>
<path d="M76.7567 38.6628L61.4145 72.1029C61.2298 72.5836 61.4467 73.2734 61.8985 73.6434C62.1757 73.8705 62.4914 73.9327 62.7373 73.809L67.3249 71.5062C68.2072 71.0629 68.9551 70.3666 69.5223 69.4605L101.543 25.2366L76.7567 38.6628Z" fill="#029BC5"/>
<path d="M29.6214 39.1806C29.2954 38.9622 28.933 38.908 28.6487 39.0348L25.0784 40.6268C24.5919 40.8434 24.4712 41.5167 24.8087 42.1308C24.8729 42.2476 24.9512 42.3572 25.0408 42.4554L37.2743 55.8854L47.8117 51.3562L29.6214 39.1806Z" fill="#029BC5"/>
<path d="M39.4536 55.4679L34.391 64.6977C34.3165 64.8297 34.3607 65.0454 34.4898 65.1793C34.5829 65.2758 34.6991 65.3067 34.7856 65.2579L38.3461 63.447C38.3738 63.4329 38.3979 63.4115 38.4167 63.3838L46.0542 52.1167L39.4536 55.4679Z" fill="#029BC5"/>
<path d="M119.085 10.0145C117.997 9.45129 116.889 9.03677 115.785 8.78001C114.912 10.2493 114.458 12.0767 114.468 14.08C114.5 14.4925 114.815 14.8873 115.171 14.962C115.282 14.985 115.388 14.9749 115.48 14.9324L121.859 11.9031C120.982 11.1406 120.048 10.5047 119.085 10.0145Z" fill="#029BC5"/>
<path d="M104.295 16.445L108.112 14.8484L112.952 23.1835L109.135 24.78L104.295 16.445Z" fill="#D5D6DB"/>
<path d="M101.336 20.2132C100.872 20.4038 100.762 21.0243 101.09 21.5993L101.621 22.5307C101.965 23.0988 102.609 23.3891 103.062 23.1792C103.492 22.9792 103.596 22.3945 103.299 21.841L102.767 20.9095C102.44 20.335 101.799 20.0233 101.336 20.2132V20.2132Z" fill="#3A556A"/>
<path d="M97.3069 22.7151C96.8436 22.9056 96.7335 23.5261 97.0615 24.1011L97.5927 25.0326C97.936 25.6006 98.5808 25.891 99.033 25.681C99.4633 25.481 99.567 24.8963 99.2699 24.3428L98.7387 23.4113C98.4108 22.837 97.77 22.5252 97.3069 22.7151V22.7151Z" fill="#3A556A"/>
<path d="M93.2771 25.2174C92.8145 25.4085 92.7051 26.0285 93.0327 26.603L93.564 27.5344C93.9072 28.1025 94.552 28.3928 95.0042 28.1829C95.4345 27.9829 95.5382 27.3982 95.2412 26.8447L94.7099 25.9133C94.382 25.3383 93.7406 25.0268 93.2771 25.2174V25.2174Z" fill="#3A556A"/>
<path d="M89.2486 27.7191C88.7859 27.9103 88.6765 28.5303 89.0041 29.1047L89.5354 30.0362C89.8787 30.6043 90.5235 30.8946 90.9757 30.6847C91.406 30.4847 91.5097 29.9 91.2126 29.3465L90.6814 28.415C90.3532 27.8401 89.7119 27.5286 89.2486 27.7191V27.7191Z" fill="#3A556A"/>
<path d="M85.2195 30.2207C84.757 30.4116 84.6476 31.0307 84.9751 31.6044L85.5062 32.5347C85.8335 33.1081 86.474 33.4189 86.9367 33.2289C87.3994 33.0388 87.5092 32.4198 87.1818 31.8464L86.6508 30.9161C86.324 30.3424 85.6836 30.0309 85.2205 30.2203C85.2201 30.2204 85.2199 30.2205 85.2195 30.2207Z" fill="#3A556A"/>
<path d="M81.1909 32.7225C80.7284 32.9134 80.619 33.5325 80.9465 34.1062L81.4776 35.0365C81.8049 35.61 82.4454 35.9208 82.9081 35.7307C83.3708 35.5406 83.4805 34.9217 83.1532 34.3482L82.6221 33.4179C82.2954 32.8442 81.655 32.5328 81.1919 32.7221C81.1915 32.7223 81.1911 32.7224 81.1909 32.7225Z" fill="#3A556A"/>
<path d="M77.1621 35.2245C76.6996 35.4154 76.5902 36.0345 76.9177 36.6083L77.4488 37.5386C77.7767 38.1118 78.4174 38.4216 78.8795 38.2309C79.3408 38.0405 79.4503 37.4228 79.1242 36.8503L78.5932 35.9201C78.2659 35.3462 77.6253 35.0349 77.1621 35.2245Z" fill="#3A556A"/>
<path d="M73.1333 37.7263C72.6708 37.9172 72.5614 38.5364 72.8889 39.1101L73.4199 40.0404C73.7479 40.6137 74.3886 40.9235 74.8507 40.7328C75.312 40.5424 75.4215 39.9247 75.0954 39.3522L74.5643 38.4219C74.237 37.848 73.5965 37.5367 73.1333 37.7263Z" fill="#3A556A"/>
<path d="M69.1048 40.2282C68.6423 40.4191 68.5329 41.0382 68.8604 41.6119L69.3914 42.5422C69.7194 43.1155 70.36 43.4253 70.8222 43.2346C71.2835 43.0442 71.393 42.4265 71.0669 41.854L70.5358 40.9237C70.2083 40.35 69.5678 40.0386 69.1048 40.2282Z" fill="#3A556A"/>
<path d="M65.0749 42.7307C64.6122 42.9208 64.5024 43.5398 64.8298 44.1133L64.8305 44.1145L65.3615 45.0448C65.6895 45.618 66.3301 45.9279 66.7922 45.7371C67.2536 45.5467 67.3631 44.929 67.037 44.3565L66.5059 43.4262C66.1786 42.8524 65.5381 42.541 65.0749 42.7307Z" fill="#3A556A"/>
<path d="M61.0474 45.2319C60.5846 45.4219 60.4749 46.0409 60.8023 46.6144L60.803 46.6156L61.334 47.5459C61.662 48.1191 62.3026 48.429 62.7648 48.2383C63.2261 48.0479 63.3356 47.4302 63.0095 46.8577L62.4785 45.9274C62.1509 45.3537 61.5104 45.0423 61.0474 45.2319Z" fill="#3A556A"/>
</svg>
