<svg width="139" height="150" viewBox="0 0 139 150" fill="none" xmlns="http://www.w3.org/2000/svg">
<path d="M10.4303 10.4293V12.116H0.756102V10.4293H10.4303ZM6.49473 6.30949V16.5847H4.70141V6.30949H6.49473Z" fill="#FF7152"/>
<path d="M10.4303 42.0129V43.6996H0.756102V42.0129H10.4303ZM6.49473 37.8931V48.1683H4.70141V37.8931H6.49473Z" fill="#E5E5E5"/>
<path d="M10.4303 73.5964V75.2831H0.756102V73.5964H10.4303ZM6.49473 69.4766V79.7518H4.70141V69.4766H6.49473Z" fill="#E5E5E5"/>
<path d="M42.014 10.4293V12.116H32.3397V10.4293H42.014ZM38.0783 6.30949V16.5847H36.285V6.30949H38.0783Z" fill="#E5E5E5"/>
<path d="M42.014 42.0129V43.6996H32.3397V42.0129H42.014ZM38.0783 37.8931V48.1683H36.285V37.8931H38.0783Z" fill="#E5E5E5"/>
<path d="M42.014 73.5964V75.2831H32.3397V73.5964H42.014ZM38.0783 69.4766V79.7518H36.285V69.4766H38.0783Z" fill="#E5E5E5"/>
<path d="M42.014 105.18V106.867H32.3397V105.18H42.014ZM38.0783 101.06V111.335H36.285V101.06H38.0783Z" fill="#E5E5E5"/>
<path d="M73.5974 10.4293V12.116H63.9232V10.4293H73.5974ZM69.6618 6.30949V16.5847H67.8685V6.30949H69.6618Z" fill="#E5E5E5"/>
<path d="M73.5974 42.0129V43.6996H63.9232V42.0129H73.5974ZM69.6618 37.8931V48.1683H67.8685V37.8931H69.6618Z" fill="#E5E5E5"/>
<path d="M73.5974 73.5964V75.2831H63.9232V73.5964H73.5974ZM69.6618 69.4766V79.7518H67.8685V69.4766H69.6618Z" fill="#6246E5"/>
<path d="M73.5974 105.18V106.867H63.9232V105.18H73.5974ZM69.6618 101.06V111.335H67.8685V101.06H69.6618Z" fill="#E5E5E5"/>
<path d="M73.5974 136.764V138.45H63.9232V136.764H73.5974ZM69.6618 132.644V142.919H67.8685V132.644H69.6618Z" fill="#E5E5E5"/>
<path d="M105.181 10.4293V12.116H95.5068V10.4293H105.181ZM101.245 6.30949V16.5847H99.4521V6.30949H101.245Z" fill="#E5E5E5"/>
<path d="M105.181 42.0129V43.6996H95.5068V42.0129H105.181ZM101.245 37.8931V48.1683H99.4521V37.8931H101.245Z" fill="#E5E5E5"/>
<path d="M105.181 73.5964V75.2831H95.5068V73.5964H105.181ZM101.245 69.4766V79.7518H99.4521V69.4766H101.245Z" fill="#E5E5E5"/>
<path d="M105.181 105.18V106.867H95.5068V105.18H105.181ZM101.245 101.06V111.335H99.4521V101.06H101.245Z" fill="#E5E5E5"/>
<path d="M105.181 136.764V138.45H95.5068V136.764H105.181ZM101.245 132.644V142.919H99.4521V132.644H101.245Z" fill="#E5E5E5"/>
<path d="M136.765 10.4293V12.116H127.09V10.4293H136.765ZM132.829 6.30949V16.5847H131.036V6.30949H132.829Z" fill="#E5E5E5"/>
<path d="M136.765 42.0129V43.6996H127.09V42.0129H136.765ZM132.829 37.8931V48.1683H131.036V37.8931H132.829Z" fill="#E5E5E5"/>
<path d="M136.765 73.5964V75.2831H127.09V73.5964H136.765ZM132.829 69.4766V79.7518H131.036V69.4766H132.829Z" fill="#E5E5E5"/>
<path d="M136.765 105.18V106.867H127.09V105.18H136.765ZM132.829 101.06V111.335H131.036V101.06H132.829Z" fill="#E5E5E5"/>
<path d="M136.765 136.764V138.45H127.09V136.764H136.765ZM132.829 132.644V142.919H131.036V132.644H132.829Z" fill="#E5E5E5"/>
</svg>
