<svg width="84" height="71" viewBox="0 0 84 71" fill="none" xmlns="http://www.w3.org/2000/svg">
<path d="M83.0197 54.1433C83.0197 63.114 75.7475 70.3862 66.7767 70.3862L42.4122 70.3862C39.9203 70.3862 37.9003 68.3662 37.9003 65.8743L37.9003 35.1931C37.9003 30.2093 41.9404 26.1692 46.9242 26.1692L78.5077 26.1692C80.9996 26.1692 83.0197 28.1893 83.0197 30.6812L83.0197 54.1433Z" fill="#FFF1DA"/>
<path d="M21.2305 45.7126L19.5267 44.897L9.40491 59.8627H20.7009L21.7895 59.153V46.2248L21.2305 45.7126Z" fill="#407093"/>
<path d="M19.6807 44.9708L15.85 43.1368H15.128L4.29596 59.153L4.94083 59.8628H9.60889L19.6807 44.9708Z" fill="#365E7D"/>
<path d="M23.8231 59.1528H8.88629C8.20774 59.1528 7.65762 59.7028 7.65762 60.3815V61.9385C7.65762 62.6169 8.20762 63.1669 8.88605 63.167H23.8231C24.5016 63.167 25.0517 62.617 25.0517 61.9385V60.3815C25.0517 59.7028 24.5016 59.1528 23.8231 59.1528Z" fill="#4A80AA"/>
<path d="M7.91191 61.9385V60.3815C7.91191 59.703 8.46203 59.1528 9.14058 59.1528H1.22867C0.55012 59.1528 0 59.7028 0 60.3815V61.9385C0 62.617 0.55012 63.167 1.22867 63.167H9.14046C8.46191 63.167 7.91191 62.617 7.91191 61.9385Z" fill="#407093"/>
<path d="M19.1665 36.0798C18.7067 37.0283 18.4469 38.0918 18.4469 39.2168C18.4469 42.2912 20.372 44.9137 23.0815 45.9512C24.2448 45.5867 25.2784 44.9293 26.0949 44.0637V42.4928L19.1665 36.0798Z" fill="#4A80AA"/>
<path d="M18.5682 39.2416C18.5682 38.1426 18.8223 37.1038 19.2723 36.1777L17.0576 34.1277H16.1589C14.8 35.4097 13.9504 37.2258 13.9504 39.2415C13.9504 43.1245 17.0982 46.2723 20.9812 46.2723C21.7901 46.2723 22.5657 46.1335 23.2887 45.8819C20.5409 44.926 18.5682 42.315 18.5682 39.2416Z" fill="#407093"/>
<path d="M59.388 0.834433C58.2754 -0.278144 56.4715 -0.278144 55.3591 0.834433L52.6403 3.5532V3.89778L56.0337 7.43526L56.6692 7.58207L59.3878 4.8633C60.5005 3.75085 60.5005 1.94701 59.388 0.834433Z" fill="#FFD086"/>
<path d="M60.1395 2.1792C60.0209 1.68669 59.7724 1.21899 59.388 0.834433C58.2754 -0.278144 56.4715 -0.278144 55.3591 0.834433L52.6403 3.5532V3.89778L54.4395 5.7733C55.5121 4.65715 56.577 3.55567 57.1247 3.00802C58.0376 2.09518 59.3711 2.08815 60.1395 2.1792Z" fill="#FFC365"/>
<path d="M50.0802 8.07662C50.049 8.07662 50.0174 8.07501 49.9857 8.07193L18.5678 4.97946C18.0438 4.92789 17.661 4.46142 17.7126 3.93745C17.7642 3.41349 18.2309 3.03091 18.7546 3.08211L50.1725 6.17445C50.6964 6.22602 51.0793 6.6925 51.0277 7.21646C50.9793 7.70884 50.5646 8.07662 50.0802 8.07662Z" fill="#365E7D"/>
<path d="M27.6545 13.9582C27.2317 13.9582 26.8454 13.6747 26.7332 13.2466C26.5995 12.7373 26.9042 12.2162 27.4133 12.0826L49.8377 6.20079C50.3469 6.06742 50.8681 6.37178 51.0016 6.88107C51.1352 7.39023 50.8307 7.91135 50.3215 8.04497L27.8971 13.9268C27.8159 13.948 27.7345 13.9582 27.6545 13.9582Z" fill="#407093"/>
<path d="M56.1705 42.535C55.6858 42.535 55.2711 42.1668 55.2229 41.6743L52.1496 10.2371C52.0984 9.7133 52.4816 9.24695 53.0056 9.19563C53.5296 9.14677 53.9958 9.52774 54.047 10.0517L57.1202 41.4889C57.1714 42.0127 56.7882 42.4791 56.2642 42.5304C56.2328 42.5334 56.2015 42.535 56.1705 42.535Z" fill="#365E7D"/>
<path d="M47.1274 33.6118C47.0466 33.6118 46.9645 33.6013 46.8825 33.5797C46.3736 33.4448 46.0705 32.9229 46.2055 32.414L52.1739 9.90297C52.3087 9.39393 52.8305 9.0913 53.3395 9.22577C53.8484 9.36074 54.1515 9.88261 54.0166 10.3915L48.0482 32.9025C47.935 33.3297 47.5492 33.6118 47.1274 33.6118Z" fill="#407093"/>
<path d="M49.9082 6.28442L52.6339 3.55873L56.6622 7.58704L53.9365 10.3127L49.9082 6.28442Z" fill="#FFC365"/>
<path d="M51.9783 8.3433C52.6334 7.65735 53.6564 6.58746 54.6459 5.55877L52.6405 3.55322L49.9143 6.27927L51.9783 8.3433Z" fill="#FFA90F"/>
<path d="M54.5501 11.8681C54.3062 11.8681 54.0622 11.7749 53.8761 11.5889L48.6337 6.34653C48.2613 5.97419 48.2613 5.37077 48.6337 4.99831C49.0059 4.62622 49.6094 4.62622 49.9818 4.99831L55.2242 10.2407C55.5966 10.613 55.5966 11.2164 55.2242 11.5889C55.0381 11.7751 54.7942 11.8681 54.5501 11.8681Z" fill="#4A80AA"/>
<path d="M55.1654 44.251L23.2472 12.0559C19.0155 21.6092 18.2807 31.8646 21.4486 40.7081C30.1977 48.6002 43.2673 49.8121 55.2991 44.851L55.1654 44.251Z" fill="#B5DCFF"/>
<path d="M23.4172 12.2273L16.1042 4.85095L15.3714 4.92325C10.2191 17.4188 11.7235 31.0347 20.4556 39.7667C20.9845 40.2956 21.5318 40.7975 22.0952 41.2736C18.4143 32.4406 19.0125 21.9349 23.4172 12.2273Z" fill="#8BCAFF"/>
<path d="M58.0822 41.9627L25.7104 9.59082C25.3918 9.63992 25.0851 9.78476 24.8398 10.03L23.4318 11.4382C23.1294 11.7406 22.979 12.1355 22.9747 12.5319L55.2439 44.801C55.7237 45.2808 56.5015 45.2808 56.9813 44.801L58.0823 43.7001C58.562 43.2204 58.562 42.4425 58.0822 41.9627Z" fill="#DBEDFF"/>
<path d="M23.4804 11.4622L24.8591 10.0835C25.113 9.82959 25.4336 9.68425 25.7645 9.6449L18.26 2.14037C17.7802 1.66057 17.0023 1.66057 16.5224 2.14037L15.4214 3.24135C14.9416 3.72114 14.9416 4.49901 15.4214 4.97881L23.0314 12.5888C23.0214 12.1822 23.1701 11.7725 23.4804 11.4622Z" fill="#B5DCFF"/>
</svg>
