<svg width="70" height="60" viewBox="0 0 70 60" fill="none" xmlns="http://www.w3.org/2000/svg">
<path d="M24.3645 43.3146C24.3645 52.2854 31.6367 59.5576 40.6075 59.5576L64.972 59.5576C67.4638 59.5576 69.4839 57.5375 69.4839 55.0457L69.4839 24.3645C69.4839 19.3807 65.4438 15.3406 60.46 15.3406L28.8764 15.3406C26.3846 15.3406 24.3645 17.3607 24.3645 19.8526L24.3645 43.3146Z" fill="#FFF1DA"/>
<path d="M45.1194 25.1299V19.9895C45.1194 18.9818 44.3025 18.165 43.2948 18.165H41.3288C40.5427 18.165 39.8452 17.6613 39.5981 16.9151C39.3228 16.0837 38.9884 15.2794 38.5998 14.507C38.246 13.8035 38.3814 12.9531 38.9382 12.3962L40.3292 11.0052C41.0417 10.2927 41.0417 9.13745 40.3292 8.42489L36.6944 4.7901C35.9818 4.07754 34.8266 4.07754 34.1141 4.7901L32.7231 6.18108C32.1662 6.73795 31.3157 6.87331 30.6123 6.51944C29.8399 6.13088 29.0355 5.79644 28.2042 5.52118C27.458 5.27407 26.9543 4.57658 26.9543 3.79048V1.82457C26.9543 0.81687 26.1375 0 25.1298 0H19.9894C18.9817 0 18.1648 0.81687 18.1648 1.82457V3.79057C18.1648 4.57667 17.6612 5.27416 16.9149 5.52127C16.0836 5.79653 15.2793 6.13097 14.5069 6.51953C13.8034 6.8734 12.953 6.73795 12.3961 6.18118L11.0051 4.79019C10.2926 4.07763 9.13733 4.07763 8.42478 4.79019L4.79017 8.42498C4.07761 9.13754 4.07761 10.2928 4.79017 11.0053L6.18115 12.3963C6.73793 12.9532 6.87338 13.8036 6.5195 14.5071C6.13095 15.2795 5.7965 16.0838 5.52125 16.9151C5.34658 17.4425 4.94704 17.8487 4.45027 18.0416C4.2441 18.1217 4.11192 18.2557 3.88133 18.2557H1.91533C0.907629 18.2557 0.0907593 19.0726 0.0907593 20.0803V25.0391C0.0907593 26.0468 0.907629 26.8637 1.91533 26.8637H3.88133C4.66743 26.8637 5.36492 27.4581 5.61203 28.2043C5.88729 29.0356 6.22173 29.8399 6.61029 30.6124C6.96416 31.3159 6.82871 32.1663 6.27193 32.7232L4.97173 34.1142C4.25917 34.8267 4.25917 35.9819 4.97173 36.6945L8.42496 40.1477C9.13752 40.8603 10.2927 40.8603 11.0053 40.1477L12.3963 38.7567C12.9531 38.1999 13.8036 38.0645 14.5071 38.4184C15.2795 38.8069 16.2654 39.2322 17.0967 39.5074C17.8429 39.7545 18.3466 40.452 18.3466 41.2381V43.2041C18.3466 44.2118 19.1635 45.0287 20.1712 45.0287H25.0392C26.0469 45.0287 26.8637 44.2118 26.8637 43.2041V41.2381C26.8637 41.0075 26.9978 40.8754 27.0779 40.6692C27.2708 40.1724 27.677 39.7729 28.2043 39.5982C29.0356 39.323 29.84 38.9885 30.6124 38.6C31.3158 38.2461 32.1663 38.3815 32.7232 38.9383L34.1141 40.3293C34.8267 41.0419 35.9819 41.0419 36.6945 40.3293L40.3293 36.6945C41.0418 35.9819 41.0418 34.8267 40.3293 34.1142L38.9383 32.7232C38.3815 32.1663 38.2461 31.3159 38.5999 30.6124C38.9885 29.84 39.3229 29.0356 39.5982 28.2043C39.8453 27.4581 40.5428 26.9544 41.3289 26.9544H43.2949C44.3025 26.9544 45.1194 26.1376 45.1194 25.1299Z" fill="#B6C4CF"/>
<path d="M27.078 40.6692C26.9981 40.8752 26.9545 41.0986 26.9545 41.3292V43.2946C26.9545 44.3023 26.1375 45.1194 25.1298 45.1194H19.9896C18.9819 45.1194 18.1649 44.3023 18.1649 43.2946V41.3292C18.1649 40.543 17.661 39.8449 16.9148 39.5979C16.0841 39.3228 15.2798 38.9888 14.5072 38.6002C13.8036 38.2462 12.953 38.3814 12.3965 38.9379L11.0057 40.3287C10.293 41.0414 9.13736 41.0414 8.42471 40.3287L4.78974 36.6947C4.07799 35.982 4.07799 34.8263 4.78974 34.1137L6.18145 32.7229C6.73795 32.1664 6.87322 31.3157 6.51916 30.6122C6.13061 29.8396 5.79653 29.0353 5.52145 28.2046C5.27452 27.4584 4.5764 26.9545 3.79021 26.9545H1.82475C0.817051 26.9545 0 26.1375 0 25.1298V19.9896C0 18.9819 0.817051 18.1648 1.82475 18.1648H3.79021C4.0208 18.1648 4.24413 18.1213 4.45021 18.0414C4.44839 18.1549 4.44748 18.2692 4.44748 18.3836C4.44748 30.693 14.4264 40.6719 26.7357 40.6719C26.8501 40.6719 26.9645 40.671 27.078 40.6692Z" fill="#9FACBA"/>
<path d="M22.5597 37.5389C30.8325 37.5389 37.539 30.8324 37.539 22.5596C37.539 14.2868 30.8325 7.58032 22.5597 7.58032C14.2869 7.58032 7.58044 14.2868 7.58044 22.5596C7.58044 30.8324 14.2869 37.5389 22.5597 37.5389Z" fill="#9FACBA"/>
<path d="M22.5597 34.3615C29.0776 34.3615 34.3615 29.0776 34.3615 22.5597C34.3615 16.0417 29.0776 10.7578 22.5597 10.7578C16.0417 10.7578 10.7578 16.0417 10.7578 22.5597C10.7578 29.0776 16.0417 34.3615 22.5597 34.3615Z" fill="#F8F7F7"/>
</svg>
